<?xml version="1.0"?>
<svg xmlns="http://www.w3.org/2000/svg" height="512px" viewBox="0 0 512 512" width="512px" class=""><g><path d="m437.019531 74.980469c-48.351562-48.351563-112.640625-74.980469-181.019531-74.980469s-132.667969 26.628906-181.019531 74.980469c-48.351563 48.351562-74.980469 112.640625-74.980469 181.019531s26.628906 132.667969 74.980469 181.019531c48.351562 48.351563 112.640625 74.980469 181.019531 74.980469s132.667969-26.628906 181.019531-74.980469c48.351563-48.351562 74.980469-112.640625 74.980469-181.019531s-26.628906-132.667969-74.980469-181.019531zm-306.886719 368.796875 32.78125-32.777344h186.171876l32.78125 32.777344c-36.917969 24.859375-80.363282 38.222656-125.867188 38.222656s-88.949219-13.363281-125.867188-38.222656zm10.867188-262.777344h230v80h-230zm230-30h-230v-14.300781c0-8.65625 7.042969-15.699219 15.699219-15.699219h198.601562c8.65625 0 15.699219 7.042969 15.699219 15.699219zm-230 140h230v74.300781c0 8.65625-7.042969 15.699219-15.699219 15.699219 0 0-.003906 0-.007812 0h-198.59375c-8.65625 0-15.699219-7.042969-15.699219-15.699219zm274.804688 124.804688c-3.265626 3.265624-6.621094 6.40625-10.042969 9.441406l-23.253907-23.253906c11.210938-8.335938 18.492188-21.679688 18.492188-36.691407v-228.601562c0-25.199219-20.5-45.699219-45.699219-45.699219h-198.601562c-25.199219 0-45.699219 20.5-45.699219 45.699219v228.601562c0 15.011719 7.28125 28.355469 18.492188 36.691407l-23.253907 23.253906c-3.421875-3.035156-6.78125-6.175782-10.046875-9.4375-42.683594-42.6875-66.191406-99.441406-66.191406-159.808594s23.507812-117.121094 66.195312-159.804688c42.683594-42.6875 99.4375-66.195312 159.804688-66.195312s117.121094 23.507812 159.804688 66.195312c42.6875 42.683594 66.195312 99.4375 66.195312 159.804688s-23.507812 117.121094-66.195312 159.804688zm0 0" data-original="#000000" class="active-path" data-old_color="#000000" fill="#FFFFFF"/><path d="m351 336c0 8.285156-6.714844 15-15 15s-15-6.714844-15-15 6.714844-15 15-15 15 6.714844 15 15zm0 0" data-original="#000000" class="active-path" data-old_color="#000000" fill="#FFFFFF"/><path d="m191 336c0 8.285156-6.714844 15-15 15s-15-6.714844-15-15 6.714844-15 15-15 15 6.714844 15 15zm0 0" data-original="#000000" class="active-path" data-old_color="#000000" fill="#FFFFFF"/><path d="m236 351h40c8.285156 0 15-6.714844 15-15s-6.714844-15-15-15h-40c-8.285156 0-15 6.714844-15 15s6.714844 15 15 15zm0 0" data-original="#000000" class="active-path" data-old_color="#000000" fill="#FFFFFF"/></g> </svg>
